<svg id="Capa_1" enable-background="new 0 0 512.006 512.006" height="512" viewBox="0 0 512.006 512.006" width="512" xmlns="http://www.w3.org/2000/svg"><path d="m511.021 421.492-123.606-380.423c-1.64-5.045-5.216-9.232-9.941-11.64-4.726-2.407-10.215-2.84-15.261-1.201l-90.172 29.299c-2.693-7.864-10.131-13.525-18.908-13.525-12.915 0-220.217 0-233.133 0-11.046 0-20 8.954-20 20v400c0 11.046 8.954 20 20 20h233.133c11.046 0 20-8.954 20-20v-256.884l85.719 263.816c3.432 10.56 14.76 16.234 25.202 12.841l114.127-37.082c10.505-3.413 16.254-14.697 12.84-25.201zm-155.468-349.041 20.423 62.855-75.897 25.299-20.611-63.433zm-122.42 91.55h-77.133v-80h77.133zm-117.133-80v80h-76v-80zm-76 120h76v240h-76zm116 240v-240h77.133v240zm234.714-4.449-78.275-240.904 75.897-25.299 78.462 241.482z"/></svg>